<?xml version="1.0" encoding="UTF-8" standalone="no"?>
<!DOCTYPE svg PUBLIC "-//W3C//DTD SVG 1.1//EN"
 "http://www.w3.org/Graphics/SVG/1.1/DTD/svg11.dtd">
<!-- Generated by graphviz version 2.30.1 (20201013.1554)
 -->
<!-- Title: snakemake_dag Pages: 1 -->
<svg width="1197pt" height="626pt"
 viewBox="0.00 0.00 1197.00 626.00" xmlns="http://www.w3.org/2000/svg" xmlns:xlink="http://www.w3.org/1999/xlink">
<g id="graph0" class="graph" transform="scale(1 1) rotate(0) translate(4 622)">
<title>snakemake_dag</title>
<polygon fill="white" stroke="white" points="-4,5 -4,-622 1194,-622 1194,5 -4,5"/>
<!-- 0 -->
<g id="node1" class="node"><title>0</title>
<path fill="none" stroke="#56d8a9" stroke-width="2" d="M631,-36C631,-36 601,-36 601,-36 595,-36 589,-30 589,-24 589,-24 589,-12 589,-12 589,-6 595,-0 601,-0 601,-0 631,-0 631,-0 637,-0 643,-6 643,-12 643,-12 643,-24 643,-24 643,-30 637,-36 631,-36"/>
<text text-anchor="middle" x="616" y="-15.5" font-family="sans" font-size="10.00">all</text>
</g>
<!-- 1 -->
<g id="node2" class="node"><title>1</title>
<path fill="none" stroke="#56d8d8" stroke-width="2" d="M648.25,-180C648.25,-180 583.75,-180 583.75,-180 577.75,-180 571.75,-174 571.75,-168 571.75,-168 571.75,-156 571.75,-156 571.75,-150 577.75,-144 583.75,-144 583.75,-144 648.25,-144 648.25,-144 654.25,-144 660.25,-150 660.25,-156 660.25,-156 660.25,-168 660.25,-168 660.25,-174 654.25,-180 648.25,-180"/>
<text text-anchor="middle" x="616" y="-159.5" font-family="sans" font-size="10.00">rototranslation</text>
</g>
<!-- 1&#45;&gt;0 -->
<g id="edge1" class="edge"><title>1&#45;&gt;0</title>
<path fill="none" stroke="grey" stroke-width="2" d="M645.505,-143.937C657.982,-134.988 671.185,-122.79 678,-108 684.695,-93.4682 684.695,-86.5318 678,-72 672.239,-59.4964 661.912,-48.846 651.318,-40.4445"/>
<polygon fill="grey" stroke="grey" points="653.357,-37.5988 643.236,-34.4647 649.193,-43.2261 653.357,-37.5988"/>
</g>
<!-- 16 -->
<g id="node17" class="node"><title>16</title>
<path fill="none" stroke="#80d856" stroke-width="2" d="M657.25,-108C657.25,-108 574.75,-108 574.75,-108 568.75,-108 562.75,-102 562.75,-96 562.75,-96 562.75,-84 562.75,-84 562.75,-78 568.75,-72 574.75,-72 574.75,-72 657.25,-72 657.25,-72 663.25,-72 669.25,-78 669.25,-84 669.25,-84 669.25,-96 669.25,-96 669.25,-102 663.25,-108 657.25,-108"/>
<text text-anchor="middle" x="616" y="-87.5" font-family="sans" font-size="10.00">compute_MSD_cor</text>
</g>
<!-- 1&#45;&gt;16 -->
<g id="edge23" class="edge"><title>1&#45;&gt;16</title>
<path fill="none" stroke="grey" stroke-width="2" d="M616,-143.697C616,-135.983 616,-126.712 616,-118.112"/>
<polygon fill="grey" stroke="grey" points="619.5,-118.104 616,-108.104 612.5,-118.104 619.5,-118.104"/>
</g>
<!-- 2 -->
<g id="node3" class="node"><title>2</title>
<path fill="none" stroke="#56d882" stroke-width="2" d="M519,-252C519,-252 451,-252 451,-252 445,-252 439,-246 439,-240 439,-240 439,-228 439,-228 439,-222 445,-216 451,-216 451,-216 519,-216 519,-216 525,-216 531,-222 531,-228 531,-228 531,-240 531,-240 531,-246 525,-252 519,-252"/>
<text text-anchor="middle" x="485" y="-231.5" font-family="sans" font-size="10.00">merge_channel</text>
</g>
<!-- 2&#45;&gt;0 -->
<g id="edge3" class="edge"><title>2&#45;&gt;0</title>
<path fill="none" stroke="grey" stroke-width="2" d="M466.58,-215.545C435.839,-184.297 380.763,-117.791 416,-72 435.675,-46.4325 526.205,-30.651 578.471,-23.5103"/>
<polygon fill="grey" stroke="grey" points="579.239,-26.9392 588.693,-22.1571 578.32,-19.9998 579.239,-26.9392"/>
</g>
<!-- 2&#45;&gt;1 -->
<g id="edge8" class="edge"><title>2&#45;&gt;1</title>
<path fill="none" stroke="grey" stroke-width="2" d="M517.046,-215.876C534.492,-206.554 556.265,-194.919 574.943,-184.939"/>
<polygon fill="grey" stroke="grey" points="576.66,-187.99 583.831,-180.19 573.361,-181.816 576.66,-187.99"/>
</g>
<!-- 15 -->
<g id="node16" class="node"><title>15</title>
<path fill="none" stroke="#d8ac56" stroke-width="2" d="M532.25,-108C532.25,-108 437.75,-108 437.75,-108 431.75,-108 425.75,-102 425.75,-96 425.75,-96 425.75,-84 425.75,-84 425.75,-78 431.75,-72 437.75,-72 437.75,-72 532.25,-72 532.25,-72 538.25,-72 544.25,-78 544.25,-84 544.25,-84 544.25,-96 544.25,-96 544.25,-102 538.25,-108 532.25,-108"/>
<text text-anchor="middle" x="485" y="-87.5" font-family="sans" font-size="10.00">compute_MSD_uncor</text>
</g>
<!-- 2&#45;&gt;15 -->
<g id="edge22" class="edge"><title>2&#45;&gt;15</title>
<path fill="none" stroke="grey" stroke-width="2" d="M485,-215.871C485,-191.67 485,-147.211 485,-118.393"/>
<polygon fill="grey" stroke="grey" points="488.5,-118.189 485,-108.189 481.5,-118.189 488.5,-118.189"/>
</g>
<!-- 3 -->
<g id="node4" class="node"><title>3</title>
<path fill="none" stroke="#d6d856" stroke-width="2" d="M462,-324C462,-324 382,-324 382,-324 376,-324 370,-318 370,-312 370,-312 370,-300 370,-300 370,-294 376,-288 382,-288 382,-288 462,-288 462,-288 468,-288 474,-294 474,-300 474,-300 474,-312 474,-312 474,-318 468,-324 462,-324"/>
<text text-anchor="middle" x="422" y="-303.5" font-family="sans" font-size="10.00">majority_rule_cell</text>
</g>
<!-- 3&#45;&gt;0 -->
<g id="edge4" class="edge"><title>3&#45;&gt;0</title>
<path fill="none" stroke="grey" stroke-width="2" d="M413.281,-287.83C393.363,-245.919 350.028,-137.063 401,-72 422.661,-44.3515 522.934,-29.1706 578.563,-22.7453"/>
<polygon fill="grey" stroke="grey" points="579.179,-26.1984 588.729,-21.6111 578.403,-19.2416 579.179,-26.1984"/>
</g>
<!-- 3&#45;&gt;2 -->
<g id="edge9" class="edge"><title>3&#45;&gt;2</title>
<path fill="none" stroke="grey" stroke-width="2" d="M437.573,-287.697C445.202,-279.22 454.523,-268.864 462.876,-259.583"/>
<polygon fill="grey" stroke="grey" points="465.518,-261.879 469.606,-252.104 460.315,-257.196 465.518,-261.879"/>
</g>
<!-- 4 -->
<g id="node5" class="node"><title>4</title>
<path fill="none" stroke="#56a9d8" stroke-width="2" d="M469.25,-396C469.25,-396 374.75,-396 374.75,-396 368.75,-396 362.75,-390 362.75,-384 362.75,-384 362.75,-372 362.75,-372 362.75,-366 368.75,-360 374.75,-360 374.75,-360 469.25,-360 469.25,-360 475.25,-360 481.25,-366 481.25,-372 481.25,-372 481.25,-384 481.25,-384 481.25,-390 475.25,-396 469.25,-396"/>
<text text-anchor="middle" x="422" y="-375.5" font-family="sans" font-size="10.00">assign_label_to_spot</text>
</g>
<!-- 4&#45;&gt;3 -->
<g id="edge11" class="edge"><title>4&#45;&gt;3</title>
<path fill="none" stroke="grey" stroke-width="2" d="M422,-359.697C422,-351.983 422,-342.712 422,-334.112"/>
<polygon fill="grey" stroke="grey" points="425.5,-334.104 422,-324.104 418.5,-334.104 425.5,-334.104"/>
</g>
<!-- 5 -->
<g id="node6" class="node"><title>5</title>
<path fill="none" stroke="#d85656" stroke-width="2" d="M300,-468C300,-468 270,-468 270,-468 264,-468 258,-462 258,-456 258,-456 258,-444 258,-444 258,-438 264,-432 270,-432 270,-432 300,-432 300,-432 306,-432 312,-438 312,-444 312,-444 312,-456 312,-456 312,-462 306,-468 300,-468"/>
<text text-anchor="middle" x="285" y="-447.5" font-family="sans" font-size="10.00">track</text>
</g>
<!-- 5&#45;&gt;4 -->
<g id="edge12" class="edge"><title>5&#45;&gt;4</title>
<path fill="none" stroke="grey" stroke-width="2" d="M312.067,-435.17C331.308,-425.339 357.537,-411.937 379.549,-400.691"/>
<polygon fill="grey" stroke="grey" points="381.379,-403.686 388.691,-396.019 378.194,-397.452 381.379,-403.686"/>
</g>
<!-- 6 -->
<g id="node7" class="node"><title>6</title>
<path fill="none" stroke="#d88556" stroke-width="2" d="M263,-540C263,-540 233,-540 233,-540 227,-540 221,-534 221,-528 221,-528 221,-516 221,-516 221,-510 227,-504 233,-504 233,-504 263,-504 263,-504 269,-504 275,-510 275,-516 275,-516 275,-528 275,-528 275,-534 269,-540 263,-540"/>
<text text-anchor="middle" x="248" y="-519.5" font-family="sans" font-size="10.00">hmax</text>
</g>
<!-- 6&#45;&gt;5 -->
<g id="edge14" class="edge"><title>6&#45;&gt;5</title>
<path fill="none" stroke="grey" stroke-width="2" d="M257.146,-503.697C261.403,-495.644 266.556,-485.894 271.266,-476.982"/>
<polygon fill="grey" stroke="grey" points="274.38,-478.581 275.959,-468.104 268.192,-475.31 274.38,-478.581"/>
</g>
<!-- 7 -->
<g id="node8" class="node"><title>7</title>
<path fill="none" stroke="#59d856" stroke-width="2" d="M446,-617.5C446,-617.5 12,-617.5 12,-617.5 6,-617.5 -2.84217e-14,-611.5 -2.84217e-14,-605.5 -2.84217e-14,-605.5 -2.84217e-14,-588.5 -2.84217e-14,-588.5 -2.84217e-14,-582.5 6,-576.5 12,-576.5 12,-576.5 446,-576.5 446,-576.5 452,-576.5 458,-582.5 458,-588.5 458,-588.5 458,-605.5 458,-605.5 458,-611.5 452,-617.5 446,-617.5"/>
<text text-anchor="middle" x="229" y="-605.5" font-family="sans" font-size="10.00">compute_hparam</text>
<text text-anchor="middle" x="229" y="-594.5" font-family="sans" font-size="10.00">channel: w1</text>
<text text-anchor="middle" x="229" y="-583.5" font-family="sans" font-size="10.00">file_name: 20230526_Rad21&#45;Halo_NIPBL_1C5_0h_1_FullseqTIRF&#45;Cy5&#45;mCherryGFPWithSMB</text>
</g>
<!-- 7&#45;&gt;6 -->
<g id="edge15" class="edge"><title>7&#45;&gt;6</title>
<path fill="none" stroke="grey" stroke-width="2" d="M234.092,-576.437C236.209,-568.302 238.702,-558.725 240.988,-549.941"/>
<polygon fill="grey" stroke="grey" points="244.41,-550.689 243.542,-540.13 237.636,-548.926 244.41,-550.689"/>
</g>
<!-- 8 -->
<g id="node9" class="node"><title>8</title>
<path fill="none" stroke="#afd856" stroke-width="2" d="M792.25,-468C792.25,-468 747.75,-468 747.75,-468 741.75,-468 735.75,-462 735.75,-456 735.75,-456 735.75,-444 735.75,-444 735.75,-438 741.75,-432 747.75,-432 747.75,-432 792.25,-432 792.25,-432 798.25,-432 804.25,-438 804.25,-444 804.25,-444 804.25,-456 804.25,-456 804.25,-462 798.25,-468 792.25,-468"/>
<text text-anchor="middle" x="770" y="-447.5" font-family="sans" font-size="10.00">track_cells</text>
</g>
<!-- 8&#45;&gt;0 -->
<g id="edge2" class="edge"><title>8&#45;&gt;0</title>
<path fill="none" stroke="grey" stroke-width="2" d="M770.79,-431.955C771.956,-405.302 774,-352.132 774,-307 774,-307 774,-307 774,-161 774,-96.0962 699.335,-53.3225 652.659,-32.924"/>
<polygon fill="grey" stroke="grey" points="653.735,-29.5789 643.161,-28.9109 651.011,-36.027 653.735,-29.5789"/>
</g>
<!-- 8&#45;&gt;4 -->
<g id="edge13" class="edge"><title>8&#45;&gt;4</title>
<path fill="none" stroke="grey" stroke-width="2" d="M735.605,-436.051C731.065,-434.568 726.445,-433.171 722,-432 644,-411.449 552.463,-396.574 491.201,-387.906"/>
<polygon fill="grey" stroke="grey" points="491.647,-384.434 481.259,-386.516 490.678,-391.367 491.647,-384.434"/>
</g>
<!-- 11 -->
<g id="node12" class="node"><title>11</title>
<path fill="none" stroke="#56a9d8" stroke-width="2" d="M733.25,-396C733.25,-396 638.75,-396 638.75,-396 632.75,-396 626.75,-390 626.75,-384 626.75,-384 626.75,-372 626.75,-372 626.75,-366 632.75,-360 638.75,-360 638.75,-360 733.25,-360 733.25,-360 739.25,-360 745.25,-366 745.25,-372 745.25,-372 745.25,-384 745.25,-384 745.25,-390 739.25,-396 733.25,-396"/>
<text text-anchor="middle" x="686" y="-375.5" font-family="sans" font-size="10.00">assign_label_to_spot</text>
</g>
<!-- 8&#45;&gt;11 -->
<g id="edge19" class="edge"><title>8&#45;&gt;11</title>
<path fill="none" stroke="grey" stroke-width="2" d="M749.236,-431.697C738.759,-422.965 725.889,-412.24 714.5,-402.75"/>
<polygon fill="grey" stroke="grey" points="716.448,-399.817 706.525,-396.104 711.967,-405.195 716.448,-399.817"/>
</g>
<!-- 9 -->
<g id="node10" class="node"><title>9</title>
<path fill="none" stroke="#5682d8" stroke-width="2" d="M1177,-540C1177,-540 743,-540 743,-540 737,-540 731,-534 731,-528 731,-528 731,-516 731,-516 731,-510 737,-504 743,-504 743,-504 1177,-504 1177,-504 1183,-504 1189,-510 1189,-516 1189,-516 1189,-528 1189,-528 1189,-534 1183,-540 1177,-540"/>
<text text-anchor="middle" x="960" y="-525" font-family="sans" font-size="10.00">compute_labels</text>
<text text-anchor="middle" x="960" y="-514" font-family="sans" font-size="10.00">file_name: 20230526_Rad21&#45;Halo_NIPBL_1C5_0h_1_FullseqTIRF&#45;Cy5&#45;mCherryGFPWithSMB</text>
</g>
<!-- 9&#45;&gt;8 -->
<g id="edge16" class="edge"><title>9&#45;&gt;8</title>
<path fill="none" stroke="grey" stroke-width="2" d="M913.521,-503.876C883.219,-492.712 843.914,-478.231 814.099,-467.247"/>
<polygon fill="grey" stroke="grey" points="814.973,-463.839 804.379,-463.666 812.553,-470.407 814.973,-463.839"/>
</g>
<!-- 10 -->
<g id="node11" class="node"><title>10</title>
<path fill="none" stroke="#d6d856" stroke-width="2" d="M726,-324C726,-324 646,-324 646,-324 640,-324 634,-318 634,-312 634,-312 634,-300 634,-300 634,-294 640,-288 646,-288 646,-288 726,-288 726,-288 732,-288 738,-294 738,-300 738,-300 738,-312 738,-312 738,-318 732,-324 726,-324"/>
<text text-anchor="middle" x="686" y="-303.5" font-family="sans" font-size="10.00">majority_rule_cell</text>
</g>
<!-- 10&#45;&gt;0 -->
<g id="edge5" class="edge"><title>10&#45;&gt;0</title>
<path fill="none" stroke="grey" stroke-width="2" d="M692.169,-287.903C705.63,-247.51 733.48,-144.153 695,-72 685.904,-54.9451 668.615,-42.4071 652.524,-33.8206"/>
<polygon fill="grey" stroke="grey" points="653.772,-30.5327 643.259,-29.2173 650.657,-36.8015 653.772,-30.5327"/>
</g>
<!-- 10&#45;&gt;2 -->
<g id="edge10" class="edge"><title>10&#45;&gt;2</title>
<path fill="none" stroke="grey" stroke-width="2" d="M637.087,-287.966C607.937,-277.814 570.843,-264.896 540.586,-254.358"/>
<polygon fill="grey" stroke="grey" points="541.617,-251.011 531.022,-251.028 539.314,-257.622 541.617,-251.011"/>
</g>
<!-- 11&#45;&gt;10 -->
<g id="edge17" class="edge"><title>11&#45;&gt;10</title>
<path fill="none" stroke="grey" stroke-width="2" d="M686,-359.697C686,-351.983 686,-342.712 686,-334.112"/>
<polygon fill="grey" stroke="grey" points="689.5,-334.104 686,-324.104 682.5,-334.104 689.5,-334.104"/>
</g>
<!-- 12 -->
<g id="node13" class="node"><title>12</title>
<path fill="none" stroke="#d85656" stroke-width="2" d="M701,-468C701,-468 671,-468 671,-468 665,-468 659,-462 659,-456 659,-456 659,-444 659,-444 659,-438 665,-432 671,-432 671,-432 701,-432 701,-432 707,-432 713,-438 713,-444 713,-444 713,-456 713,-456 713,-462 707,-468 701,-468"/>
<text text-anchor="middle" x="686" y="-447.5" font-family="sans" font-size="10.00">track</text>
</g>
<!-- 12&#45;&gt;11 -->
<g id="edge18" class="edge"><title>12&#45;&gt;11</title>
<path fill="none" stroke="grey" stroke-width="2" d="M686,-431.697C686,-423.983 686,-414.712 686,-406.112"/>
<polygon fill="grey" stroke="grey" points="689.5,-406.104 686,-396.104 682.5,-406.104 689.5,-406.104"/>
</g>
<!-- 13 -->
<g id="node14" class="node"><title>13</title>
<path fill="none" stroke="#d88556" stroke-width="2" d="M701,-540C701,-540 671,-540 671,-540 665,-540 659,-534 659,-528 659,-528 659,-516 659,-516 659,-510 665,-504 671,-504 671,-504 701,-504 701,-504 707,-504 713,-510 713,-516 713,-516 713,-528 713,-528 713,-534 707,-540 701,-540"/>
<text text-anchor="middle" x="686" y="-519.5" font-family="sans" font-size="10.00">hmax</text>
</g>
<!-- 13&#45;&gt;12 -->
<g id="edge20" class="edge"><title>13&#45;&gt;12</title>
<path fill="none" stroke="grey" stroke-width="2" d="M686,-503.697C686,-495.983 686,-486.712 686,-478.112"/>
<polygon fill="grey" stroke="grey" points="689.5,-478.104 686,-468.104 682.5,-478.104 689.5,-478.104"/>
</g>
<!-- 14 -->
<g id="node15" class="node"><title>14</title>
<path fill="none" stroke="#59d856" stroke-width="2" d="M922,-617.5C922,-617.5 488,-617.5 488,-617.5 482,-617.5 476,-611.5 476,-605.5 476,-605.5 476,-588.5 476,-588.5 476,-582.5 482,-576.5 488,-576.5 488,-576.5 922,-576.5 922,-576.5 928,-576.5 934,-582.5 934,-588.5 934,-588.5 934,-605.5 934,-605.5 934,-611.5 928,-617.5 922,-617.5"/>
<text text-anchor="middle" x="705" y="-605.5" font-family="sans" font-size="10.00">compute_hparam</text>
<text text-anchor="middle" x="705" y="-594.5" font-family="sans" font-size="10.00">channel: w2</text>
<text text-anchor="middle" x="705" y="-583.5" font-family="sans" font-size="10.00">file_name: 20230526_Rad21&#45;Halo_NIPBL_1C5_0h_1_FullseqTIRF&#45;Cy5&#45;mCherryGFPWithSMB</text>
</g>
<!-- 14&#45;&gt;13 -->
<g id="edge21" class="edge"><title>14&#45;&gt;13</title>
<path fill="none" stroke="grey" stroke-width="2" d="M699.908,-576.437C697.791,-568.302 695.298,-558.725 693.012,-549.941"/>
<polygon fill="grey" stroke="grey" points="696.364,-548.926 690.458,-540.13 689.59,-550.689 696.364,-548.926"/>
</g>
<!-- 15&#45;&gt;0 -->
<g id="edge6" class="edge"><title>15&#45;&gt;0</title>
<path fill="none" stroke="grey" stroke-width="2" d="M517.046,-71.8761C536.01,-61.743 560.087,-48.8773 579.743,-38.374"/>
<polygon fill="grey" stroke="grey" points="581.541,-41.3816 588.711,-33.5818 578.242,-35.2078 581.541,-41.3816"/>
</g>
<!-- 16&#45;&gt;0 -->
<g id="edge7" class="edge"><title>16&#45;&gt;0</title>
<path fill="none" stroke="grey" stroke-width="2" d="M616,-71.6966C616,-63.9827 616,-54.7125 616,-46.1124"/>
<polygon fill="grey" stroke="grey" points="619.5,-46.1043 616,-36.1043 612.5,-46.1044 619.5,-46.1043"/>
</g>
</g>
</svg>
